name C:\Users\u0101727\Documents\MyRepositories\upper-imu-dc\OpenSim\subject0\MA\ResultsMA\grid_4nodes_9dim\angles_18.mot
datacolumns 10
datarows 37
range 1825.01000000 1825.37000000
endheader 
time	clav_prot	clav_elev	scapula_abduction	scapula_elevation	scapula_upward_rot	scapula_winging	plane_elv	shoulder_elv	axial_rot	
       1825.01000000	        -50.00000000	          0.00000000	         -3.33333333	         10.00000000	          0.00000000	          0.00000000	        -90.00000000	        100.00000000	         30.00000000	
       1825.02000000	        -38.33333333	          0.00000000	         -3.33333333	         10.00000000	          0.00000000	          0.00000000	        -90.00000000	        100.00000000	         30.00000000	
       1825.03000000	        -26.66666667	          0.00000000	         -3.33333333	         10.00000000	          0.00000000	          0.00000000	        -90.00000000	        100.00000000	         30.00000000	
       1825.04000000	        -15.00000000	          0.00000000	         -3.33333333	         10.00000000	          0.00000000	          0.00000000	        -90.00000000	        100.00000000	         30.00000000	
       1825.05000000	        -50.00000000	         10.00000000	         -3.33333333	         10.00000000	          0.00000000	          0.00000000	        -90.00000000	        100.00000000	         30.00000000	
       1825.06000000	        -38.33333333	         10.00000000	         -3.33333333	         10.00000000	          0.00000000	          0.00000000	        -90.00000000	        100.00000000	         30.00000000	
       1825.07000000	        -26.66666667	         10.00000000	         -3.33333333	         10.00000000	          0.00000000	          0.00000000	        -90.00000000	        100.00000000	         30.00000000	
       1825.08000000	        -15.00000000	         10.00000000	         -3.33333333	         10.00000000	          0.00000000	          0.00000000	        -90.00000000	        100.00000000	         30.00000000	
       1825.09000000	        -50.00000000	         20.00000000	         -3.33333333	         10.00000000	          0.00000000	          0.00000000	        -90.00000000	        100.00000000	         30.00000000	
       1825.10000000	        -38.33333333	         20.00000000	         -3.33333333	         10.00000000	          0.00000000	          0.00000000	        -90.00000000	        100.00000000	         30.00000000	
       1825.11000000	        -26.66666667	         20.00000000	         -3.33333333	         10.00000000	          0.00000000	          0.00000000	        -90.00000000	        100.00000000	         30.00000000	
       1825.12000000	        -15.00000000	         20.00000000	         -3.33333333	         10.00000000	          0.00000000	          0.00000000	        -90.00000000	        100.00000000	         30.00000000	
       1825.13000000	        -50.00000000	        -10.00000000	         15.00000000	         10.00000000	          0.00000000	          0.00000000	        -90.00000000	        100.00000000	         30.00000000	
       1825.14000000	        -38.33333333	        -10.00000000	         15.00000000	         10.00000000	          0.00000000	          0.00000000	        -90.00000000	        100.00000000	         30.00000000	
       1825.15000000	        -26.66666667	        -10.00000000	         15.00000000	         10.00000000	          0.00000000	          0.00000000	        -90.00000000	        100.00000000	         30.00000000	
       1825.16000000	        -15.00000000	        -10.00000000	         15.00000000	         10.00000000	          0.00000000	          0.00000000	        -90.00000000	        100.00000000	         30.00000000	
       1825.17000000	        -50.00000000	          0.00000000	         15.00000000	         10.00000000	          0.00000000	          0.00000000	        -90.00000000	        100.00000000	         30.00000000	
       1825.18000000	        -38.33333333	          0.00000000	         15.00000000	         10.00000000	          0.00000000	          0.00000000	        -90.00000000	        100.00000000	         30.00000000	
       1825.19000000	        -26.66666667	          0.00000000	         15.00000000	         10.00000000	          0.00000000	          0.00000000	        -90.00000000	        100.00000000	         30.00000000	
       1825.20000000	        -15.00000000	          0.00000000	         15.00000000	         10.00000000	          0.00000000	          0.00000000	        -90.00000000	        100.00000000	         30.00000000	
       1825.21000000	        -50.00000000	         10.00000000	         15.00000000	         10.00000000	          0.00000000	          0.00000000	        -90.00000000	        100.00000000	         30.00000000	
       1825.22000000	        -38.33333333	         10.00000000	         15.00000000	         10.00000000	          0.00000000	          0.00000000	        -90.00000000	        100.00000000	         30.00000000	
       1825.23000000	        -26.66666667	         10.00000000	         15.00000000	         10.00000000	          0.00000000	          0.00000000	        -90.00000000	        100.00000000	         30.00000000	
       1825.24000000	        -15.00000000	         10.00000000	         15.00000000	         10.00000000	          0.00000000	          0.00000000	        -90.00000000	        100.00000000	         30.00000000	
       1825.25000000	        -50.00000000	         20.00000000	         15.00000000	         10.00000000	          0.00000000	          0.00000000	        -90.00000000	        100.00000000	         30.00000000	
       1825.26000000	        -38.33333333	         20.00000000	         15.00000000	         10.00000000	          0.00000000	          0.00000000	        -90.00000000	        100.00000000	         30.00000000	
       1825.27000000	        -26.66666667	         20.00000000	         15.00000000	         10.00000000	          0.00000000	          0.00000000	        -90.00000000	        100.00000000	         30.00000000	
       1825.28000000	        -15.00000000	         20.00000000	         15.00000000	         10.00000000	          0.00000000	          0.00000000	        -90.00000000	        100.00000000	         30.00000000	
       1825.29000000	        -50.00000000	        -10.00000000	        -40.00000000	        -10.00000000	         30.00000000	          0.00000000	        -90.00000000	        100.00000000	         30.00000000	
       1825.30000000	        -38.33333333	        -10.00000000	        -40.00000000	        -10.00000000	         30.00000000	          0.00000000	        -90.00000000	        100.00000000	         30.00000000	
       1825.31000000	        -26.66666667	        -10.00000000	        -40.00000000	        -10.00000000	         30.00000000	          0.00000000	        -90.00000000	        100.00000000	         30.00000000	
       1825.32000000	        -15.00000000	        -10.00000000	        -40.00000000	        -10.00000000	         30.00000000	          0.00000000	        -90.00000000	        100.00000000	         30.00000000	
       1825.33000000	        -50.00000000	          0.00000000	        -40.00000000	        -10.00000000	         30.00000000	          0.00000000	        -90.00000000	        100.00000000	         30.00000000	
       1825.34000000	        -38.33333333	          0.00000000	        -40.00000000	        -10.00000000	         30.00000000	          0.00000000	        -90.00000000	        100.00000000	         30.00000000	
       1825.35000000	        -26.66666667	          0.00000000	        -40.00000000	        -10.00000000	         30.00000000	          0.00000000	        -90.00000000	        100.00000000	         30.00000000	
       1825.36000000	        -15.00000000	          0.00000000	        -40.00000000	        -10.00000000	         30.00000000	          0.00000000	        -90.00000000	        100.00000000	         30.00000000	
       1825.37000000	        -50.00000000	         10.00000000	        -40.00000000	        -10.00000000	         30.00000000	          0.00000000	        -90.00000000	        100.00000000	         30.00000000	
